<?xml version="1.0" encoding="UTF-8"?>
<svg width="508px" height="425px" viewBox="0 0 508 425" version="1.1" xmlns="http://www.w3.org/2000/svg" xmlns:xlink="http://www.w3.org/1999/xlink">
    <!-- Generator: Sketch 61.2 (89653) - https://sketch.com -->
    <title>Group</title>
    <desc>Created with Sketch.</desc>
    <defs>
        <path d="M0,105.574 C0,163.638 47.07,210.708 105.135,210.708 L105.135,210.708 C163.2,210.708 210.27,163.638 210.27,105.574 L210.27,105.574 C210.27,47.509 163.2,0.439 105.135,0.439 L105.135,0.439 C47.07,0.439 0,47.509 0,105.574 L0,105.574 Z" id="path-1"></path>
        <path d="M0,105.574 C0,163.638 47.07,210.708 105.135,210.708 L105.135,210.708 C163.2,210.708 210.27,163.638 210.27,105.574 L210.27,105.574 C210.27,47.509 163.2,0.439 105.135,0.439 L105.135,0.439 C47.07,0.439 0,47.509 0,105.574 L0,105.574 Z" id="path-3"></path>
        <path d="M0,105.574 C0,163.638 47.07,210.708 105.135,210.708 L105.135,210.708 C163.2,210.708 210.27,163.638 210.27,105.574 L210.27,105.574 C210.27,47.509 163.2,0.439 105.135,0.439 L105.135,0.439 C47.07,0.439 0,47.509 0,105.574" id="path-5"></path>
        <path d="M0,105.574 C0,163.638 47.07,210.708 105.135,210.708 L105.135,210.708 C163.2,210.708 210.27,163.638 210.27,105.574 L210.27,105.574 C210.27,47.509 163.2,0.439 105.135,0.439 L105.135,0.439 C47.07,0.439 0,47.509 0,105.574" id="path-7"></path>
        <path d="M0,105.574 C0,163.638 47.07,210.708 105.135,210.708 L105.135,210.708 C163.2,210.708 210.27,163.638 210.27,105.574 L210.27,105.574 C210.27,47.509 163.2,0.439 105.135,0.439 L105.135,0.439 C47.07,0.439 0,47.509 0,105.574" id="path-9"></path>
        <path d="M0,105.574 C0,163.638 47.07,210.708 105.135,210.708 L105.135,210.708 C163.2,210.708 210.27,163.638 210.27,105.574 L210.27,105.574 C210.27,47.509 163.2,0.439 105.135,0.439 L105.135,0.439 C47.07,0.439 0,47.509 0,105.574 L0,105.574 Z" id="path-11"></path>
    </defs>
    <g id="Page-1" stroke="none" stroke-width="1" fill="none" fill-rule="evenodd">
        <g id="Symposium_Landing" transform="translate(-207.000000, -212.000000)">
            <g id="Group" transform="translate(208.000000, 211.000000)">
                <g id="Group-9" transform="translate(0.000000, 214.165000)">
                    <path d="M486.1025,5.6465 L486.1025,92.8875 C486.1025,124.4925 460.2435,150.3525 428.6375,150.3525 L207.9415,150.3525" id="Stroke-1" stroke="#241F20" stroke-width="3" stroke-linecap="round" stroke-linejoin="round" stroke-dasharray="0,6"></path>
                    <path d="M295.0059,137.4566 C295.0059,172.2286 323.1939,200.4176 357.9659,200.4176 C392.7379,200.4176 420.9269,172.2286 420.9269,137.4566 C420.9269,102.6856 392.7379,74.4966 357.9659,74.4966 C323.1939,74.4966 295.0059,102.6856 295.0059,137.4566" id="Fill-3" fill="#588CF4"></path>
                    <path d="M210.2695,105.3502 C210.2695,163.4142 163.1995,210.4852 105.1345,210.4852 C47.0705,210.4852 -0.0005,163.4142 -0.0005,105.3502 C-0.0005,47.2862 47.0705,0.2152 105.1345,0.2152 C163.1995,0.2152 210.2695,47.2862 210.2695,105.3502" id="Fill-5" fill="#EAF0FF"></path>
                    <path d="M210.2695,105.3502 C210.2695,163.4142 163.1995,210.4852 105.1345,210.4852 C47.0705,210.4852 -0.0005,163.4142 -0.0005,105.3502 C-0.0005,47.2862 47.0705,0.2152 105.1345,0.2152 C163.1995,0.2152 210.2695,47.2862 210.2695,105.3502 Z" id="Stroke-7" stroke="#588CF4" stroke-width="2"></path>
                </g>
                <g id="Group-12" transform="translate(0.000000, 213.165000)">
                    <mask id="mask-2" fill="white">
                        <use xlink:href="#path-1"></use>
                    </mask>
                    <g id="Clip-11"></g>
                    <polygon id="Fill-10" fill="#FFFFFF" mask="url(#mask-2)" points="41.9287 106.3502 41.9287 125.3062 41.9287 132.4472 41.9287 342.9992 158.2297 342.9992 158.2297 106.3502"></polygon>
                </g>
                <g id="Group-15" transform="translate(0.000000, 213.165000)">
                    <mask id="mask-4" fill="white">
                        <use xlink:href="#path-3"></use>
                    </mask>
                    <g id="Clip-14"></g>
                    <polygon id="Stroke-13" stroke="#588CF4" stroke-width="2" stroke-linejoin="round" mask="url(#mask-4)" points="41.9287 106.3502 41.9287 125.3062 41.9287 132.4472 41.9287 342.9992 158.2297 342.9992 158.2297 106.3502"></polygon>
                </g>
                <g id="Group-18" transform="translate(0.000000, 213.165000)">
                    <mask id="mask-6" fill="white">
                        <use xlink:href="#path-5"></use>
                    </mask>
                    <g id="Clip-17"></g>
                    <path d="M124.9639,158.3355 C124.9639,172.4765 113.4999,183.9395 99.3589,183.9395 C85.2179,183.9395 73.7539,172.4765 73.7539,158.3355 C73.7539,144.1935 85.2179,132.7315 99.3589,132.7315 C113.4999,132.7315 124.9639,144.1935 124.9639,158.3355" id="Fill-16" fill="#EAF0FF" mask="url(#mask-6)"></path>
                </g>
                <g id="Group-21" transform="translate(0.000000, 213.165000)">
                    <mask id="mask-8" fill="white">
                        <use xlink:href="#path-7"></use>
                    </mask>
                    <g id="Clip-20"></g>
                    <line x1="92.376" y1="148.2486" x2="111.773" y2="148.2486" id="Stroke-19" stroke="#588CF4" stroke-width="2" stroke-linejoin="round" mask="url(#mask-8)"></line>
                </g>
                <g id="Group-24" transform="translate(0.000000, 213.165000)">
                    <mask id="mask-10" fill="white">
                        <use xlink:href="#path-9"></use>
                    </mask>
                    <g id="Clip-23"></g>
                    <line x1="96.2549" y1="156.0074" x2="107.1179" y2="156.0074" id="Stroke-22" stroke="#588CF4" stroke-width="2" stroke-linejoin="round" mask="url(#mask-10)"></line>
                </g>
                <g id="Group-27" transform="translate(0.000000, 213.165000)">
                    <mask id="mask-12" fill="white">
                        <use xlink:href="#path-11"></use>
                    </mask>
                    <g id="Clip-26"></g>
                    <path d="M127.291,152.9039 C127.291,167.0459 115.827,178.5089 101.687,178.5089 C87.545,178.5089 76.082,167.0459 76.082,152.9039 C76.082,138.7629 87.545,127.2999 101.687,127.2999 C115.827,127.2999 127.291,138.7629 127.291,152.9039 Z" id="Stroke-25" stroke="#588CF4" stroke-width="2" stroke-linejoin="round" mask="url(#mask-12)"></path>
                </g>
                <g id="Group-133" transform="translate(17.000000, 0.165000)">
                    <path d="M5.0615,239.0445 C5.0615,239.872927 4.38992712,240.5445 3.5615,240.5445 C2.73307288,240.5445 2.0615,239.872927 2.0615,239.0445 L2.0615,238.0445 C2.0615,237.216073 2.73307288,236.5445 3.5615,236.5445 C4.38992712,236.5445 5.0615,237.216073 5.0615,238.0445 L5.0615,239.0445 Z M5.0615,233.0445 C5.0615,233.872927 4.38992712,234.5445 3.5615,234.5445 C2.73307288,234.5445 2.0615,233.872927 2.0615,233.0445 L2.0615,232.0445 C2.0615,231.216073 2.73307288,230.5445 3.5615,230.5445 C4.38992712,230.5445 5.0615,231.216073 5.0615,232.0445 L5.0615,233.0445 Z M5.0615,227.0445 C5.0615,227.872927 4.38992712,228.5445 3.5615,228.5445 C2.73307288,228.5445 2.0615,227.872927 2.0615,227.0445 L2.0615,226.0445 C2.0615,225.216073 2.73307288,224.5445 3.5615,224.5445 C4.38992712,224.5445 5.0615,225.216073 5.0615,226.0445 L5.0615,227.0445 Z M5.0615,221.0445 C5.0615,221.872927 4.38992712,222.5445 3.5615,222.5445 C2.73307288,222.5445 2.0615,221.872927 2.0615,221.0445 L2.0615,220.0445 C2.0615,219.216073 2.73307288,218.5445 3.5615,218.5445 C4.38992712,218.5445 5.0615,219.216073 5.0615,220.0445 L5.0615,221.0445 Z M5.0615,215.0445 C5.0615,215.872927 4.38992712,216.5445 3.5615,216.5445 C2.73307288,216.5445 2.0615,215.872927 2.0615,215.0445 L2.0615,214.0445 C2.0615,213.216073 2.73307288,212.5445 3.5615,212.5445 C4.38992712,212.5445 5.0615,213.216073 5.0615,214.0445 L5.0615,215.0445 Z M5.0615,209.0445 C5.0615,209.872927 4.38992712,210.5445 3.5615,210.5445 C2.73307288,210.5445 2.0615,209.872927 2.0615,209.0445 L2.0615,208.0445 C2.0615,207.216073 2.73307288,206.5445 3.5615,206.5445 C4.38992712,206.5445 5.0615,207.216073 5.0615,208.0445 L5.0615,209.0445 Z M5.0615,203.0445 C5.0615,203.872927 4.38992712,204.5445 3.5615,204.5445 C2.73307288,204.5445 2.0615,203.872927 2.0615,203.0445 L2.0615,202.0445 C2.0615,201.216073 2.73307288,200.5445 3.5615,200.5445 C4.38992712,200.5445 5.0615,201.216073 5.0615,202.0445 L5.0615,203.0445 Z M5.0615,197.0445 C5.0615,197.872927 4.38992712,198.5445 3.5615,198.5445 C2.73307288,198.5445 2.0615,197.872927 2.0615,197.0445 L2.0615,196.0445 C2.0615,195.216073 2.73307288,194.5445 3.5615,194.5445 C4.38992712,194.5445 5.0615,195.216073 5.0615,196.0445 L5.0615,197.0445 Z M5.0615,191.0445 C5.0615,191.872927 4.38992712,192.5445 3.5615,192.5445 C2.73307288,192.5445 2.0615,191.872927 2.0615,191.0445 L2.0615,190.0445 C2.0615,189.216073 2.73307288,188.5445 3.5615,188.5445 C4.38992712,188.5445 5.0615,189.216073 5.0615,190.0445 L5.0615,191.0445 Z M5.0615,185.0445 C5.0615,185.872927 4.38992712,186.5445 3.5615,186.5445 C2.73307288,186.5445 2.0615,185.872927 2.0615,185.0445 L2.0615,184.0445 C2.0615,183.216073 2.73307288,182.5445 3.5615,182.5445 C4.38992712,182.5445 5.0615,183.216073 5.0615,184.0445 L5.0615,185.0445 Z M5.0615,179.0445 C5.0615,179.872927 4.38992712,180.5445 3.5615,180.5445 C2.73307288,180.5445 2.0615,179.872927 2.0615,179.0445 L2.0615,178.0445 C2.0615,177.216073 2.73307288,176.5445 3.5615,176.5445 C4.38992712,176.5445 5.0615,177.216073 5.0615,178.0445 L5.0615,179.0445 Z M5.0615,173.0445 C5.0615,173.872927 4.38992712,174.5445 3.5615,174.5445 C2.73307288,174.5445 2.0615,173.872927 2.0615,173.0445 L2.0615,172.0445 C2.0615,171.216073 2.73307288,170.5445 3.5615,170.5445 C4.38992712,170.5445 5.0615,171.216073 5.0615,172.0445 L5.0615,173.0445 Z M5.0615,167.0445 C5.0615,167.872927 4.38992712,168.5445 3.5615,168.5445 C2.73307288,168.5445 2.0615,167.872927 2.0615,167.0445 L2.0615,166.0445 C2.0615,165.216073 2.73307288,164.5445 3.5615,164.5445 C4.38992712,164.5445 5.0615,165.216073 5.0615,166.0445 L5.0615,167.0445 Z M5.0615,161.0445 C5.0615,161.872927 4.38992712,162.5445 3.5615,162.5445 C2.73307288,162.5445 2.0615,161.872927 2.0615,161.0445 L2.0615,160.0445 C2.0615,159.216073 2.73307288,158.5445 3.5615,158.5445 C4.38992712,158.5445 5.0615,159.216073 5.0615,160.0445 L5.0615,161.0445 Z M5.0615,155.0445 C5.0615,155.872927 4.38992712,156.5445 3.5615,156.5445 C2.73307288,156.5445 2.0615,155.872927 2.0615,155.0445 L2.0615,154.0445 C2.0615,153.216073 2.73307288,152.5445 3.5615,152.5445 C4.38992712,152.5445 5.0615,153.216073 5.0615,154.0445 L5.0615,155.0445 Z M5.0615,149.0445 C5.0615,149.872927 4.38992712,150.5445 3.5615,150.5445 C2.73307288,150.5445 2.0615,149.872927 2.0615,149.0445 L2.0615,148.0445 C2.0615,147.216073 2.73307288,146.5445 3.5615,146.5445 C4.38992712,146.5445 5.0615,147.216073 5.0615,148.0445 L5.0615,149.0445 Z M5.0615,143.0445 C5.0615,143.872927 4.38992712,144.5445 3.5615,144.5445 C2.73307288,144.5445 2.0615,143.872927 2.0615,143.0445 L2.0615,142.0445 C2.0615,141.216073 2.73307288,140.5445 3.5615,140.5445 C4.38992712,140.5445 5.0615,141.216073 5.0615,142.0445 L5.0615,143.0445 Z M5.0615,137.0445 C5.0615,137.872927 4.38992712,138.5445 3.5615,138.5445 C2.73307288,138.5445 2.0615,137.872927 2.0615,137.0445 L2.0615,136.0445 C2.0615,135.216073 2.73307288,134.5445 3.5615,134.5445 C4.38992712,134.5445 5.0615,135.216073 5.0615,136.0445 L5.0615,137.0445 Z M5.0615,131.0445 C5.0615,131.872927 4.38992712,132.5445 3.5615,132.5445 C2.73307288,132.5445 2.0615,131.872927 2.0615,131.0445 L2.0615,130.0445 C2.0615,129.216073 2.73307288,128.5445 3.5615,128.5445 C4.38992712,128.5445 5.0615,129.216073 5.0615,130.0445 L5.0615,131.0445 Z M5.0615,125.0445 C5.0615,125.872927 4.38992712,126.5445 3.5615,126.5445 C2.73307288,126.5445 2.0615,125.872927 2.0615,125.0445 L2.0615,124.0445 C2.0615,123.216073 2.73307288,122.5445 3.5615,122.5445 C4.38992712,122.5445 5.0615,123.216073 5.0615,124.0445 L5.0615,125.0445 Z M5.06785463,119.070011 C5.05474521,119.898334 4.37262913,120.559196 3.54430574,120.546086 C2.71598234,120.532977 2.05512085,119.850861 2.06823028,119.022537 L2.08405476,118.022663 C2.09716419,117.194339 2.77928026,116.533478 3.60760366,116.546587 C4.43592705,116.559697 5.09678854,117.241813 5.08367911,118.070136 L5.06785463,119.070011 Z M5.49690373,113.257033 C5.38803262,114.078275 4.6340269,114.655766 3.8127848,114.546895 C2.9915427,114.438024 2.41405191,113.684018 2.52292301,112.862776 L2.65434206,111.871449 C2.76321317,111.050207 3.51721889,110.472716 4.33846099,110.581587 C5.15970309,110.690458 5.73719388,111.444464 5.62832278,112.265706 L5.49690373,113.257033 Z M6.60394207,107.514632 C6.39966344,108.317478 5.5832276,108.802713 4.78038157,108.598434 C3.97753554,108.394155 3.49230079,107.57772 3.69657941,106.774874 L3.94316553,105.805753 C4.14744415,105.002907 4.96388,104.517672 5.76672603,104.72195 C6.56957205,104.926229 7.05480681,105.742665 6.85052818,106.545511 L6.60394207,107.514632 Z M8.36517091,101.969295 C8.06883044,102.742906 7.20146348,103.12981 6.42785258,102.83347 C5.65424167,102.537129 5.26733754,101.669762 5.56367801,100.896151 L5.9213926,99.9623205 C6.21773307,99.1887096 7.08510003,98.8018054 7.85871093,99.0981459 C8.63232183,99.3944864 9.01922597,100.261853 8.7228855,101.035464 L8.36517091,101.969295 Z M10.7738445,96.6358314 C10.3895171,97.3697141 9.48302857,97.6530847 8.74914582,97.2687572 C8.01526306,96.8844297 7.73189251,95.9779412 8.11621998,95.2440585 L8.58014427,94.3581836 C8.96447174,93.6243009 9.87096023,93.3409303 10.604843,93.7252578 C11.3387257,94.1095853 11.6220963,95.0160738 11.2377688,95.7499565 L10.7738445,96.6358314 Z M13.7529045,91.6634747 C13.287205,92.3486137 12.354266,92.5265046 11.669127,92.0608051 C10.983988,91.5951056 10.8060971,90.6621666 11.2717966,89.9770276 L11.8339456,89.1499916 C12.2996451,88.4648526 13.2325841,88.2869617 13.9177231,88.7526612 C14.6028621,89.2183607 14.780753,90.1512997 14.3150535,90.8364387 L13.7529045,91.6634747 Z M17.3090029,87.0280011 C16.7679428,87.6553331 15.8207738,87.7252702 15.1934418,87.18421 C14.5661099,86.6431498 14.4961728,85.6959809 15.0372329,85.0686489 L15.6903503,84.3113922 C16.2314105,83.6840603 17.1785795,83.6141232 17.8059114,84.1551833 C18.4332434,84.6962435 18.5031805,85.6434125 17.9621203,86.2707444 L17.3090029,87.0280011 Z M21.3797564,82.8214933 C20.7705121,83.3828425 19.8215586,83.3440157 19.2602094,82.7347714 C18.6988603,82.1255271 18.737687,81.1765736 19.3469313,80.6152245 L20.0823543,79.9376161 C20.6915986,79.376267 21.6405521,79.4150937 22.2019013,80.024338 C22.7632504,80.6335823 22.7244237,81.5825358 22.1151794,82.143885 L21.3797564,82.8214933 Z M25.912236,79.1030084 C25.242621,79.5907657 24.3043853,79.4433409 23.816628,78.7737259 C23.3288707,78.1041108 23.4762955,77.1658752 24.1459106,76.6781179 L24.9542074,76.0893427 C25.6238225,75.6015854 26.5620582,75.7490102 27.0498155,76.4186253 C27.5375728,77.0882403 27.3901479,78.026476 26.7205329,78.5142333 L25.912236,79.1030084 Z M30.8197161,75.94322 C30.0985086,76.3508365 29.1834159,76.0966207 28.7757994,75.3754132 C28.368183,74.6542056 28.6223988,73.739113 29.3436063,73.3314965 L30.2141808,72.8394599 C30.9353884,72.4318434 31.850481,72.6860592 32.2580975,73.4072668 C32.665714,74.1284743 32.4114982,75.043567 31.6902906,75.4511834 L30.8197161,75.94322 Z M35.9823286,73.4026503 C35.2193123,73.725292 34.3392126,73.3682979 34.0165709,72.6052816 C33.6939292,71.8422654 34.0509233,70.9621657 34.8139395,70.639524 L35.7349816,70.2500609 C36.4979979,69.9274192 37.3780976,70.2844133 37.7007393,71.0474296 C38.0233811,71.8104458 37.666387,72.6905455 36.9033707,73.0131872 L35.9823286,73.4026503 Z M41.4825777,71.4467095 C40.6871422,71.6781699 39.8546787,71.2209777 39.6232183,70.4255423 C39.3917579,69.6301068 39.8489501,68.7976432 40.6443856,68.5661828 L41.6045611,68.2867855 C42.3999966,68.0553251 43.2324602,68.5125173 43.4639205,69.3079527 C43.6953809,70.1033882 43.2381888,70.9358518 42.4427533,71.1673121 L41.4825777,71.4467095 Z M47.1763889,70.1463717 C46.3593359,70.2831777 45.5860804,69.7317285 45.4492745,68.9146755 C45.3124685,68.0976225 45.8639177,67.324367 46.6809707,67.187561 L47.667241,67.0224216 C48.484294,66.8856157 49.2575495,67.4370649 49.3943554,68.2541179 C49.5311614,69.0711709 48.9797122,69.8444264 48.1626592,69.9812323 L47.1763889,70.1463717 Z M52.9897631,69.5195225 C52.1623359,69.5602128 51.4585876,68.9224366 51.4178972,68.0950094 C51.3772069,67.2675822 52.0149831,66.5638338 52.8424103,66.5231435 L53.8412033,66.4740259 C54.6686305,66.4333356 55.3723789,67.0711118 55.4130692,67.898539 C55.4537596,68.7259662 54.8159833,69.4297146 53.9885561,69.4704049 L52.9897631,69.5195225 Z M58.9284173,69.4585 C58.0999902,69.4585 57.4284173,68.7869271 57.4284173,67.9585 C57.4284173,67.1300729 58.0999902,66.4585 58.9284173,66.4585 L59.9284173,66.4585 C60.7568444,66.4585 61.4284173,67.1300729 61.4284173,67.9585 C61.4284173,68.7869271 60.7568444,69.4585 59.9284173,69.4585 L58.9284173,69.4585 Z M64.9284173,69.4585 C64.0999902,69.4585 63.4284173,68.7869271 63.4284173,67.9585 C63.4284173,67.1300729 64.0999902,66.4585 64.9284173,66.4585 L65.9284173,66.4585 C66.7568444,66.4585 67.4284173,67.1300729 67.4284173,67.9585 C67.4284173,68.7869271 66.7568444,69.4585 65.9284173,69.4585 L64.9284173,69.4585 Z M70.9284173,69.4585 C70.0999902,69.4585 69.4284173,68.7869271 69.4284173,67.9585 C69.4284173,67.1300729 70.0999902,66.4585 70.9284173,66.4585 L71.9284173,66.4585 C72.7568444,66.4585 73.4284173,67.1300729 73.4284173,67.9585 C73.4284173,68.7869271 72.7568444,69.4585 71.9284173,69.4585 L70.9284173,69.4585 Z M76.9284173,69.4585 C76.0999902,69.4585 75.4284173,68.7869271 75.4284173,67.9585 C75.4284173,67.1300729 76.0999902,66.4585 76.9284173,66.4585 L77.9284173,66.4585 C78.7568444,66.4585 79.4284173,67.1300729 79.4284173,67.9585 C79.4284173,68.7869271 78.7568444,69.4585 77.9284173,69.4585 L76.9284173,69.4585 Z M82.9284173,69.4585 C82.0999902,69.4585 81.4284173,68.7869271 81.4284173,67.9585 C81.4284173,67.1300729 82.0999902,66.4585 82.9284173,66.4585 L83.9284173,66.4585 C84.7568444,66.4585 85.4284173,67.1300729 85.4284173,67.9585 C85.4284173,68.7869271 84.7568444,69.4585 83.9284173,69.4585 L82.9284173,69.4585 Z M88.9284173,69.4585 C88.0999902,69.4585 87.4284173,68.7869271 87.4284173,67.9585 C87.4284173,67.1300729 88.0999902,66.4585 88.9284173,66.4585 L89.9284173,66.4585 C90.7568444,66.4585 91.4284173,67.1300729 91.4284173,67.9585 C91.4284173,68.7869271 90.7568444,69.4585 89.9284173,69.4585 L88.9284173,69.4585 Z M94.9284173,69.4585 C94.0999902,69.4585 93.4284173,68.7869271 93.4284173,67.9585 C93.4284173,67.1300729 94.0999902,66.4585 94.9284173,66.4585 L95.9284173,66.4585 C96.7568444,66.4585 97.4284173,67.1300729 97.4284173,67.9585 C97.4284173,68.7869271 96.7568444,69.4585 95.9284173,69.4585 L94.9284173,69.4585 Z M100.928417,69.4585 C100.09999,69.4585 99.4284173,68.7869271 99.4284173,67.9585 C99.4284173,67.1300729 100.09999,66.4585 100.928417,66.4585 L101.928417,66.4585 C102.756844,66.4585 103.428417,67.1300729 103.428417,67.9585 C103.428417,68.7869271 102.756844,69.4585 101.928417,69.4585 L100.928417,69.4585 Z M106.928417,69.4585 C106.09999,69.4585 105.428417,68.7869271 105.428417,67.9585 C105.428417,67.1300729 106.09999,66.4585 106.928417,66.4585 L107.928417,66.4585 C108.756844,66.4585 109.428417,67.1300729 109.428417,67.9585 C109.428417,68.7869271 108.756844,69.4585 107.928417,69.4585 L106.928417,69.4585 Z M112.928417,69.4585 C112.09999,69.4585 111.428417,68.7869271 111.428417,67.9585 C111.428417,67.1300729 112.09999,66.4585 112.928417,66.4585 L113.928417,66.4585 C114.756844,66.4585 115.428417,67.1300729 115.428417,67.9585 C115.428417,68.7869271 114.756844,69.4585 113.928417,69.4585 L112.928417,69.4585 Z M118.928417,69.4585 C118.09999,69.4585 117.428417,68.7869271 117.428417,67.9585 C117.428417,67.1300729 118.09999,66.4585 118.928417,66.4585 L119.928417,66.4585 C120.756844,66.4585 121.428417,67.1300729 121.428417,67.9585 C121.428417,68.7869271 120.756844,69.4585 119.928417,69.4585 L118.928417,69.4585 Z M124.928417,69.4585 C124.09999,69.4585 123.428417,68.7869271 123.428417,67.9585 C123.428417,67.1300729 124.09999,66.4585 124.928417,66.4585 L125.928417,66.4585 C126.756844,66.4585 127.428417,67.1300729 127.428417,67.9585 C127.428417,68.7869271 126.756844,69.4585 125.928417,69.4585 L124.928417,69.4585 Z M130.928417,69.4585 C130.09999,69.4585 129.428417,68.7869271 129.428417,67.9585 C129.428417,67.1300729 130.09999,66.4585 130.928417,66.4585 L131.928417,66.4585 C132.756844,66.4585 133.428417,67.1300729 133.428417,67.9585 C133.428417,68.7869271 132.756844,69.4585 131.928417,69.4585 L130.928417,69.4585 Z M136.928417,69.4585 C136.09999,69.4585 135.428417,68.7869271 135.428417,67.9585 C135.428417,67.1300729 136.09999,66.4585 136.928417,66.4585 L137.928417,66.4585 C138.756844,66.4585 139.428417,67.1300729 139.428417,67.9585 C139.428417,68.7869271 138.756844,69.4585 137.928417,69.4585 L136.928417,69.4585 Z M142.928417,69.4585 C142.09999,69.4585 141.428417,68.7869271 141.428417,67.9585 C141.428417,67.1300729 142.09999,66.4585 142.928417,66.4585 L143.928417,66.4585 C144.756844,66.4585 145.428417,67.1300729 145.428417,67.9585 C145.428417,68.7869271 144.756844,69.4585 143.928417,69.4585 L142.928417,69.4585 Z M148.928417,69.4585 C148.09999,69.4585 147.428417,68.7869271 147.428417,67.9585 C147.428417,67.1300729 148.09999,66.4585 148.928417,66.4585 L149.928417,66.4585 C150.756844,66.4585 151.428417,67.1300729 151.428417,67.9585 C151.428417,68.7869271 150.756844,69.4585 149.928417,69.4585 L148.928417,69.4585 Z M154.928417,69.4585 C154.09999,69.4585 153.428417,68.7869271 153.428417,67.9585 C153.428417,67.1300729 154.09999,66.4585 154.928417,66.4585 L155.928417,66.4585 C156.756844,66.4585 157.428417,67.1300729 157.428417,67.9585 C157.428417,68.7869271 156.756844,69.4585 155.928417,69.4585 L154.928417,69.4585 Z M160.928417,69.4585 C160.09999,69.4585 159.428417,68.7869271 159.428417,67.9585 C159.428417,67.1300729 160.09999,66.4585 160.928417,66.4585 L161.928417,66.4585 C162.756844,66.4585 163.428417,67.1300729 163.428417,67.9585 C163.428417,68.7869271 162.756844,69.4585 161.928417,69.4585 L160.928417,69.4585 Z M166.928417,69.4585 C166.09999,69.4585 165.428417,68.7869271 165.428417,67.9585 C165.428417,67.1300729 166.09999,66.4585 166.928417,66.4585 L167.928417,66.4585 C168.756844,66.4585 169.428417,67.1300729 169.428417,67.9585 C169.428417,68.7869271 168.756844,69.4585 167.928417,69.4585 L166.928417,69.4585 Z M172.928417,69.4585 C172.09999,69.4585 171.428417,68.7869271 171.428417,67.9585 C171.428417,67.1300729 172.09999,66.4585 172.928417,66.4585 L173.928417,66.4585 C174.756844,66.4585 175.428417,67.1300729 175.428417,67.9585 C175.428417,68.7869271 174.756844,69.4585 173.928417,69.4585 L172.928417,69.4585 Z M178.928417,69.4585 C178.09999,69.4585 177.428417,68.7869271 177.428417,67.9585 C177.428417,67.1300729 178.09999,66.4585 178.928417,66.4585 L179.928417,66.4585 C180.756844,66.4585 181.428417,67.1300729 181.428417,67.9585 C181.428417,68.7869271 180.756844,69.4585 179.928417,69.4585 L178.928417,69.4585 Z M184.928417,69.4585 C184.09999,69.4585 183.428417,68.7869271 183.428417,67.9585 C183.428417,67.1300729 184.09999,66.4585 184.928417,66.4585 L185.928417,66.4585 C186.756844,66.4585 187.428417,67.1300729 187.428417,67.9585 C187.428417,68.7869271 186.756844,69.4585 185.928417,69.4585 L184.928417,69.4585 Z M190.928417,69.4585 C190.09999,69.4585 189.428417,68.7869271 189.428417,67.9585 C189.428417,67.1300729 190.09999,66.4585 190.928417,66.4585 L191.928417,66.4585 C192.756844,66.4585 193.428417,67.1300729 193.428417,67.9585 C193.428417,68.7869271 192.756844,69.4585 191.928417,69.4585 L190.928417,69.4585 Z M196.928417,69.4585 C196.09999,69.4585 195.428417,68.7869271 195.428417,67.9585 C195.428417,67.1300729 196.09999,66.4585 196.928417,66.4585 L197.928417,66.4585 C198.756844,66.4585 199.428417,67.1300729 199.428417,67.9585 C199.428417,68.7869271 198.756844,69.4585 197.928417,69.4585 L196.928417,69.4585 Z M202.928417,69.4585 C202.09999,69.4585 201.428417,68.7869271 201.428417,67.9585 C201.428417,67.1300729 202.09999,66.4585 202.928417,66.4585 L203.928417,66.4585 C204.756844,66.4585 205.428417,67.1300729 205.428417,67.9585 C205.428417,68.7869271 204.756844,69.4585 203.928417,69.4585 L202.928417,69.4585 Z M208.928417,69.4585 C208.09999,69.4585 207.428417,68.7869271 207.428417,67.9585 C207.428417,67.1300729 208.09999,66.4585 208.928417,66.4585 L209.928417,66.4585 C210.756844,66.4585 211.428417,67.1300729 211.428417,67.9585 C211.428417,68.7869271 210.756844,69.4585 209.928417,69.4585 L208.928417,69.4585 Z M214.928417,69.4585 C214.09999,69.4585 213.428417,68.7869271 213.428417,67.9585 C213.428417,67.1300729 214.09999,66.4585 214.928417,66.4585 L215.928417,66.4585 C216.756844,66.4585 217.428417,67.1300729 217.428417,67.9585 C217.428417,68.7869271 216.756844,69.4585 215.928417,69.4585 L214.928417,69.4585 Z M220.928417,69.4585 C220.09999,69.4585 219.428417,68.7869271 219.428417,67.9585 C219.428417,67.1300729 220.09999,66.4585 220.928417,66.4585 L221.928417,66.4585 C222.756844,66.4585 223.428417,67.1300729 223.428417,67.9585 C223.428417,68.7869271 222.756844,69.4585 221.928417,69.4585 L220.928417,69.4585 Z M226.928417,69.4585 C226.09999,69.4585 225.428417,68.7869271 225.428417,67.9585 C225.428417,67.1300729 226.09999,66.4585 226.928417,66.4585 L227.928417,66.4585 C228.756844,66.4585 229.428417,67.1300729 229.428417,67.9585 C229.428417,68.7869271 228.756844,69.4585 227.928417,69.4585 L226.928417,69.4585 Z M232.928417,69.4585 C232.09999,69.4585 231.428417,68.7869271 231.428417,67.9585 C231.428417,67.1300729 232.09999,66.4585 232.928417,66.4585 L233.928417,66.4585 C234.756844,66.4585 235.428417,67.1300729 235.428417,67.9585 C235.428417,68.7869271 234.756844,69.4585 233.928417,69.4585 L232.928417,69.4585 Z M238.928417,69.4585 C238.09999,69.4585 237.428417,68.7869271 237.428417,67.9585 C237.428417,67.1300729 238.09999,66.4585 238.928417,66.4585 L239.928417,66.4585 C240.756844,66.4585 241.428417,67.1300729 241.428417,67.9585 C241.428417,68.7869271 240.756844,69.4585 239.928417,69.4585 L238.928417,69.4585 Z M244.928417,69.4585 C244.09999,69.4585 243.428417,68.7869271 243.428417,67.9585 C243.428417,67.1300729 244.09999,66.4585 244.928417,66.4585 L245.928417,66.4585 C246.756844,66.4585 247.428417,67.1300729 247.428417,67.9585 C247.428417,68.7869271 246.756844,69.4585 245.928417,69.4585 L244.928417,69.4585 Z M250.928417,69.4585 C250.09999,69.4585 249.428417,68.7869271 249.428417,67.9585 C249.428417,67.1300729 250.09999,66.4585 250.928417,66.4585 L251.928417,66.4585 C252.756844,66.4585 253.428417,67.1300729 253.428417,67.9585 C253.428417,68.7869271 252.756844,69.4585 251.928417,69.4585 L250.928417,69.4585 Z M256.928417,69.4585 C256.09999,69.4585 255.428417,68.7869271 255.428417,67.9585 C255.428417,67.1300729 256.09999,66.4585 256.928417,66.4585 L257.928417,66.4585 C258.756844,66.4585 259.428417,67.1300729 259.428417,67.9585 C259.428417,68.7869271 258.756844,69.4585 257.928417,69.4585 L256.928417,69.4585 Z M262.928417,69.4585 C262.09999,69.4585 261.428417,68.7869271 261.428417,67.9585 C261.428417,67.1300729 262.09999,66.4585 262.928417,66.4585 L263.928417,66.4585 C264.756844,66.4585 265.428417,67.1300729 265.428417,67.9585 C265.428417,68.7869271 264.756844,69.4585 263.928417,69.4585 L262.928417,69.4585 Z M268.928417,69.4585 C268.09999,69.4585 267.428417,68.7869271 267.428417,67.9585 C267.428417,67.1300729 268.09999,66.4585 268.928417,66.4585 L269.928417,66.4585 C270.756844,66.4585 271.428417,67.1300729 271.428417,67.9585 C271.428417,68.7869271 270.756844,69.4585 269.928417,69.4585 L268.928417,69.4585 Z" id="Stroke-29" fill="#241F20" fill-rule="nonzero"></path>
                    <path d="M488.5,138.1768 C488.5,196.2408 441.43,243.3118 383.365,243.3118 C325.301,243.3118 278.23,196.2408 278.23,138.1768 C278.23,80.1128 325.301,33.0418 383.365,33.0418 C441.43,33.0418 488.5,80.1128 488.5,138.1768" id="Fill-31" fill="#EAF0FF"></path>
                    <path d="M488.5,138.1768 C488.5,196.2408 441.43,243.3118 383.365,243.3118 C325.301,243.3118 278.23,196.2408 278.23,138.1768 C278.23,80.1128 325.301,33.0418 383.365,33.0418 C441.43,33.0418 488.5,80.1128 488.5,138.1768 Z" id="Stroke-33" stroke="#588CF4" stroke-width="2"></path>
                    <path d="M216.1582,184.3433 L171.1562,184.3433 C152.8052,184.3433 137.7922,199.3573 137.7922,217.7063 L137.7922,217.7073 C137.7922,234.2073 149.9352,248.0043 165.7242,250.6183 L165.7242,263.0973 C165.7242,264.9583 167.9742,265.8903 169.2912,264.5743 L182.7952,251.0713 L216.1582,251.0713 C234.5092,251.0713 249.5222,236.0573 249.5222,217.7073 C249.5222,199.3573 234.5092,184.3433 216.1582,184.3433" id="Fill-35" fill="#241F20"></path>
                    <path d="M54.6904,71.0215 C54.6904,105.7935 82.8784,133.9815 117.6504,133.9815 C152.4224,133.9815 180.6114,105.7935 180.6114,71.0215 C180.6114,36.2495 152.4224,8.0615 117.6504,8.0615 C82.8784,8.0615 54.6904,36.2495 54.6904,71.0215" id="Fill-37" fill="#588CF4"></path>
                    <path d="M298.8809,0.835 L340.9669,0.835 C358.1269,0.835 372.1679,14.876 372.1679,32.036 C372.1679,47.468 360.8119,60.37 346.0459,62.814 L346.0459,74.592 C346.0459,76.293 343.9889,77.145 342.7869,75.942 L330.0819,63.238 L298.8809,63.238 C281.7199,63.238 267.6799,49.197 267.6799,32.036 C267.6799,14.876 281.7199,0.835 298.8809,0.835" id="Fill-39" fill="#241F20"></path>
                    <line x1="291.8623" y1="22.9483" x2="347.7263" y2="22.9483" id="Stroke-41" stroke="#FFFFFF" stroke-width="4" stroke-linecap="round" stroke-linejoin="round"></line>
                    <line x1="292.25" y1="36.7505" x2="326.39" y2="36.7505" id="Stroke-43" stroke="#FFFFFF" stroke-width="4" stroke-linecap="round" stroke-linejoin="round"></line>
                    <path d="M7.3809,240.6265 C7.3809,242.5375 5.8309,244.0875 3.9189,244.0875 C2.0079,244.0875 0.4579,242.5375 0.4579,240.6265 C0.4579,238.7145 2.0079,237.1645 3.9189,237.1645 C5.8309,237.1645 7.3809,238.7145 7.3809,240.6265" id="Fill-45" fill="#241F20"></path>
                    <path d="M195.9248,363.9947 C195.9248,365.9057 194.3748,367.4557 192.4628,367.4557 C190.5518,367.4557 189.0018,365.9057 189.0018,363.9947 C189.0018,362.0827 190.5518,360.5327 192.4628,360.5327 C194.3748,360.5327 195.9248,362.0827 195.9248,363.9947" id="Fill-47" fill="#241F20"></path>
                    <path d="M472.9219,217.3492 C472.9219,219.2612 471.3719,220.8102 469.4599,220.8102 C467.5489,220.8102 465.9989,219.2612 465.9989,217.3492 C465.9989,215.4372 467.5489,213.8882 469.4599,213.8882 C471.3719,213.8882 472.9219,215.4372 472.9219,217.3492" id="Fill-49" fill="#241F20"></path>
                    <path d="M279.7217,67.6002 C279.7217,69.5122 278.1717,71.0612 276.2607,71.0612 C274.3487,71.0612 272.7987,69.5122 272.7987,67.6002 C272.7987,65.6882 274.3487,64.1392 276.2607,64.1392 C278.1717,64.1392 279.7217,65.6882 279.7217,67.6002" id="Fill-51" fill="#241F20"></path>
                    <path d="M62.0332,214.2764 C58.4172,214.2764 55.4172,217.0284 55.0122,220.5404 C50.2202,221.2224 46.5002,225.3584 46.5002,230.3314 C46.5002,235.2944 50.2062,239.4244 54.9842,240.1174 C54.9742,240.2714 54.9622,240.4234 54.9622,240.5794 C54.9622,244.4694 58.1432,247.6514 62.0332,247.6514 L66.5002,247.6514 L66.5002,233.5074 L66.5002,228.4204 L66.5002,214.2764 L62.0332,214.2764 Z" id="Fill-53" fill="#FFFFFF"></path>
                    <path d="M62.0332,214.2764 C58.4172,214.2764 55.4172,217.0284 55.0122,220.5404 C50.2202,221.2224 46.5002,225.3584 46.5002,230.3314 C46.5002,235.2944 50.2062,239.4244 54.9842,240.1174 C54.9742,240.2714 54.9622,240.4234 54.9622,240.5794 C54.9622,244.4694 58.1432,247.6514 62.0332,247.6514 L66.5002,247.6514 L66.5002,233.5074 L66.5002,228.4204 L66.5002,214.2764 L62.0332,214.2764 Z" id="Stroke-55" stroke="#588CF4" stroke-width="2"></path>
                    <path d="M123.2539,268.0679 C123.2539,261.1469 117.6429,255.5359 110.7219,255.5359 L86.5059,255.5359 L86.5059,247.7239 L95.9529,247.7239 C98.1739,247.7239 99.9739,245.9239 99.9739,243.7039 L99.9739,238.8359 L99.9739,220.0709 L99.9739,209.0269 C99.9739,199.6339 92.6089,191.6939 83.2199,191.4369 C73.4789,191.1699 65.4959,198.9869 65.4959,208.6689 L65.4959,220.0709 L65.4959,237.7579 L65.4959,239.6439 L65.4959,240.9009 L65.4959,255.5359 L43.3509,255.5359 C36.4299,255.5359 30.8179,261.1469 30.8179,268.0679 L25.4259,321.5739 L128.6469,321.5739 L123.2539,268.0679 Z" id="Fill-57" fill="#FFFFFF"></path>
                    <path d="M123.2539,268.0679 C123.2539,261.1469 117.6429,255.5359 110.7219,255.5359 L86.5059,255.5359 L86.5059,247.7239 L95.9529,247.7239 C98.1739,247.7239 99.9739,245.9239 99.9739,243.7039 L99.9739,238.8359 L99.9739,220.0709 L99.9739,209.0269 C99.9739,199.6339 92.6089,191.6939 83.2199,191.4369 C73.4789,191.1699 65.4959,198.9869 65.4959,208.6689 L65.4959,220.0709 L65.4959,237.7579 L65.4959,239.6439 L65.4959,240.9009 L65.4959,255.5359 L43.3509,255.5359 C36.4299,255.5359 30.8179,261.1469 30.8179,268.0679 L25.4259,321.5739 L128.6469,321.5739 L123.2539,268.0679 Z" id="Stroke-59" stroke="#588CF4" stroke-width="2"></path>
                    <g id="Group-64" transform="translate(62.000000, 197.000000)">
                        <path d="M33.791,0.5616 C33.791,18.5456 3.844,20.5576 3.844,20.5576 L4.844,20.5576 C2.918,20.5576 0.342,22.1326 0.342,24.0586 L0.342,29.9836 C0.342,31.9106 2.918,33.4856 4.844,33.4856 L7.5,33.4856" id="Fill-61" fill="#FFFFFF"></path>
                        <path d="M33.791,0.5616 C33.791,18.5456 3.844,20.5576 3.844,20.5576 L4.844,20.5576 C2.918,20.5576 0.342,22.1326 0.342,24.0586 L0.342,29.9836 C0.342,31.9106 2.918,33.4856 4.844,33.4856 L7.5,33.4856" id="Stroke-63" stroke="#588CF4" stroke-width="2"></path>
                    </g>
                    <path d="M99.3408,241.065 C93.3198,241.065 88.2368,237.845 86.5738,233.414 C86.0028,231.892 87.1188,230.264 88.7438,230.264 L99.4998,230.264" id="Fill-65" fill="#588CF4"></path>
                    <g id="Group-70" transform="translate(43.000000, 278.000000)">
                        <line x1="4.6514" y1="0.566" x2="0.1424" y2="43.782" id="Fill-67" fill="#FFFFFF"></line>
                        <line x1="4.6514" y1="0.566" x2="0.1424" y2="43.782" id="Stroke-69" stroke="#588CF4" stroke-width="2"></line>
                    </g>
                    <g id="Group-74" transform="translate(109.000000, 278.000000)">
                        <line x1="0.2012" y1="0.566" x2="4.7102" y2="43.782" id="Fill-71" fill="#FFFFFF"></line>
                        <line x1="0.2012" y1="0.566" x2="4.7102" y2="43.782" id="Stroke-73" stroke="#588CF4" stroke-width="2"></line>
                    </g>
                    <path d="M103,255.7642 C103,261.5632 91.583,266.2642 77.5,266.2642 C63.417,266.2642 52,261.5632 52,255.7642" id="Stroke-75" stroke="#588CF4" stroke-width="2"></path>
                    <path d="M61.7734,233.2515 C61.7424,233.6815 61.3674,234.0015 60.9374,233.9705 C60.5084,233.9385 60.1804,233.5635 60.2114,233.1355 C60.2434,232.7055 60.6184,232.3855 61.0474,232.4085 C61.4614,232.4395 61.7734,232.7835 61.7734,233.1895 L61.7734,233.2515 Z M61.5394,236.2415 C61.1254,236.3835 60.6874,236.1565 60.5474,235.7505 C60.4074,235.3445 60.6264,234.8985 61.0394,234.7595 C61.4454,234.6265 61.8824,234.8445 62.0234,235.2505 C62.0534,235.3285 62.0704,235.4145 62.0704,235.5005 C62.0704,235.8285 61.8594,236.1335 61.5394,236.2415 L61.5394,236.2415 Z M62.3114,231.3085 L62.3114,231.3085 C62.1164,231.6895 61.6484,231.8465 61.2654,231.6505 C60.8754,231.4485 60.7274,230.9805 60.9224,230.5975 C61.1184,230.2145 61.5864,230.0585 61.9764,230.2535 C62.2424,230.3955 62.3984,230.6675 62.3984,230.9485 C62.3984,231.0725 62.3744,231.1905 62.3114,231.3085 L62.3114,231.3085 Z M62.9754,238.1005 C62.6484,238.3815 62.1564,238.3575 61.8754,238.0295 L61.8674,238.0295 C61.5864,237.7095 61.6174,237.2185 61.9374,236.9295 C62.2574,236.6405 62.7494,236.6715 63.0384,236.9915 C63.1704,237.1405 63.2334,237.3275 63.2334,237.5145 C63.2334,237.7255 63.1474,237.9445 62.9754,238.1005 L62.9754,238.1005 Z M65.0134,239.2555 C64.8264,239.6385 64.3574,239.8105 63.9664,239.6145 L63.9754,239.6145 C63.5854,239.4365 63.4204,238.9675 63.6084,238.5765 C63.7954,238.1865 64.2634,238.0225 64.6464,238.2095 L64.6544,238.2095 C64.9274,238.3425 65.0914,238.6235 65.0914,238.9115 C65.0914,239.0295 65.0684,239.1475 65.0134,239.2555 L65.0134,239.2555 Z M67.3474,239.5215 C67.3244,239.9505 66.9574,240.2865 66.5284,240.2635 C66.0984,240.2395 65.7624,239.8805 65.7864,239.4505 C65.8024,239.0145 66.1694,238.6855 66.6054,238.7095 C67.0194,238.7255 67.3474,239.0675 67.3474,239.4815 L67.3474,239.5215 Z M66.8484,228.5275 C66.4194,228.5275 66.0754,228.1765 66.0754,227.7475 C66.0754,227.3175 66.4194,226.9665 66.8484,226.9665 C67.2854,226.9665 67.6284,227.3175 67.6284,227.7475 C67.6284,228.1765 67.2854,228.5275 66.8484,228.5275 L66.8484,228.5275 Z M69.1354,239.8725 L69.1354,239.8725 C68.7304,240.0215 68.2854,239.8105 68.1354,239.4045 C67.9804,238.9985 68.1914,238.5535 68.5974,238.4045 C69.0024,238.2565 69.4564,238.4595 69.5964,238.8655 C69.6274,238.9595 69.6434,239.0455 69.6434,239.1305 C69.6434,239.4505 69.4484,239.7555 69.1354,239.8725 L69.1354,239.8725 Z M69.8534,228.5135 C69.6824,228.9105 69.2214,229.0985 68.8244,228.9265 C68.4244,228.7625 68.2464,228.3015 68.4104,227.9035 C68.5744,227.5055 69.0344,227.3175 69.4324,227.4895 C69.7284,227.6145 69.9094,227.9035 69.9094,228.2075 C69.9094,228.3105 69.8924,228.4115 69.8534,228.5135 L69.8534,228.5135 Z M71.3834,238.4905 C71.0644,238.7875 70.5644,238.7645 70.2754,238.4515 C69.9864,238.1395 70.0024,237.6395 70.3144,237.3505 C70.6344,237.0545 71.1274,237.0695 71.4154,237.3905 C71.5564,237.5375 71.6274,237.7255 71.6274,237.9205 C71.6274,238.1315 71.5474,238.3345 71.3834,238.4905 L71.3834,238.4905 Z M71.5954,230.0745 C71.2904,230.3785 70.7914,230.3705 70.4944,230.0665 L70.4944,230.0585 C70.1904,229.7545 70.1984,229.2625 70.5094,228.9575 C70.8144,228.6605 71.3064,228.6695 71.6104,228.9735 C71.7594,229.1215 71.8294,229.3245 71.8294,229.5205 C71.8294,229.7235 71.7524,229.9255 71.5954,230.0745 L71.5954,230.0745 Z M72.9144,236.3525 C72.7434,236.7415 72.2744,236.9215 71.8844,236.7415 C71.4944,236.5625 71.3144,236.1015 71.4944,235.7115 C71.6724,235.3135 72.1334,235.1425 72.5244,235.3205 C72.8134,235.4535 72.9844,235.7345 72.9844,236.0315 C72.9844,236.1405 72.9614,236.2505 72.9144,236.3525 L72.9144,236.3525 Z M72.6024,232.1975 C72.1964,232.3545 71.7434,232.1585 71.5874,231.7615 C71.4314,231.3555 71.6274,230.9015 72.0324,230.7455 C72.4304,230.5895 72.8824,230.7845 73.0464,231.1835 C73.0784,231.2765 73.1014,231.3785 73.1014,231.4725 C73.1014,231.7835 72.9074,232.0725 72.6024,232.1975 L72.6024,232.1975 Z M73.5004,233.7825 C73.4924,234.2125 73.1324,234.5475 72.7044,234.5405 C72.2664,234.5325 71.9304,234.1735 71.9384,233.7435 C71.9474,233.3135 72.3054,232.9715 72.7354,232.9795 C73.1644,232.9945 73.5004,233.3375 73.5004,233.7595 L73.5004,233.7825 Z" id="Fill-77" fill="#588CF4"></path>
                    <polygon id="Fill-79" fill="#DFE7F7" points="85.4053 246.7642 85.4053 256.3642 72.0943 246.7642"></polygon>
                    <path d="M120.5664,241.1509 C133.3884,241.1509 143.8784,251.6409 143.8784,264.4629 L143.8784,310.2629" id="Stroke-81" stroke="#588CF4" stroke-width="2"></path>
                    <path d="M120.5107,241.1988 C120.5107,244.4078 117.9087,247.0098 114.6997,247.0098 C111.4917,247.0098 108.8907,244.4078 108.8907,241.1988 C108.8907,237.9898 111.4917,235.3888 114.6997,235.3888 C117.9087,235.3888 120.5107,237.9898 120.5107,241.1988" id="Fill-83" fill="#588CF4"></path>
                    <polygon id="Fill-85" fill="#FFFFFF" points="7.5 329.437 157.19 329.437 157.19 309.263 7.5 309.263"></polygon>
                    <polygon id="Stroke-87" stroke="#588CF4" stroke-width="2" stroke-linejoin="round" points="7.5 329.437 157.19 329.437 157.19 309.263 7.5 309.263"></polygon>
                    <line x1="164.8623" y1="208.9483" x2="220.7263" y2="208.9483" id="Stroke-88" stroke="#FFFFFF" stroke-width="4" stroke-linecap="round" stroke-linejoin="round"></line>
                    <line x1="165.25" y1="223.7505" x2="199.39" y2="223.7505" id="Stroke-89" stroke="#FFFFFF" stroke-width="4" stroke-linecap="round" stroke-linejoin="round"></line>
                    <path d="M375.3184,103.5679 C375.3184,96.6469 380.9294,91.0359 387.8504,91.0359 L412.0664,91.0359 L412.0664,83.2249 L402.6204,83.2249 C400.3984,83.2249 398.5984,81.4239 398.5984,79.2029 L398.5984,74.3359 L398.5984,55.5709 L398.5984,44.5269 C398.5984,35.1339 407.9634,27.1939 417.3524,26.9369 C427.0944,26.6699 435.0764,34.4869 435.0764,44.1689 L435.0764,55.5709 L435.0764,73.2579 L435.0764,75.1439 L435.0764,76.4009 L435.0764,91.0359 L455.2214,91.0359 C462.1434,91.0359 467.7544,96.6469 467.7544,103.5679 L473.1454,157.0739 L369.9254,157.0739 L375.3184,103.5679 Z" id="Fill-90" fill="#FFFFFF"></path>
                    <path d="M375.3184,103.5679 C375.3184,96.6469 380.9294,91.0359 387.8504,91.0359 L412.0664,91.0359 L412.0664,83.2249 L402.6204,83.2249 C400.3984,83.2249 398.5984,81.4239 398.5984,79.2029 L398.5984,74.3359 L398.5984,55.5709 L398.5984,44.5269 C398.5984,35.1339 407.9634,27.1939 417.3524,26.9369 C427.0944,26.6699 435.0764,34.4869 435.0764,44.1689 L435.0764,55.5709 L435.0764,73.2579 L435.0764,75.1439 L435.0764,76.4009 L435.0764,91.0359 L455.2214,91.0359 C462.1434,91.0359 467.7544,96.6469 467.7544,103.5679 L473.1454,157.0739 L369.9254,157.0739 L375.3184,103.5679 Z" id="Stroke-91" stroke="#588CF4" stroke-width="2"></path>
                    <path d="M399.2314,76.565 C405.2524,76.565 410.3354,73.345 411.9984,68.914 C412.5694,67.392 411.4534,65.764 409.8284,65.764 L399.0724,65.764" id="Fill-92" fill="#588CF4"></path>
                    <g id="Group-95" transform="translate(450.000000, 114.000000)">
                        <line x1="0.9209" y1="0.0655" x2="5.4299" y2="43.2815" id="Fill-93" fill="#FFFFFF"></line>
                        <line x1="0.9209" y1="0.0655" x2="5.4299" y2="43.2815" id="Stroke-94" stroke="#588CF4" stroke-width="2"></line>
                    </g>
                    <g id="Group-98" transform="translate(384.000000, 114.000000)">
                        <line x1="5.3711" y1="0.0655" x2="0.8621" y2="43.2815" id="Fill-96" fill="#FFFFFF"></line>
                        <line x1="5.3711" y1="0.0655" x2="0.8621" y2="43.2815" id="Stroke-97" stroke="#588CF4" stroke-width="2"></line>
                    </g>
                    <path d="M428.0723,64.9859 L428.0003,73.7639 L438.5003,73.7639 L438.5003,38.2639 C438.5003,24.7639 426.0003,25.7639 426.0003,25.7639 L398.0003,25.7639 L393.0003,25.7639 L393.5003,29.2639 C393.5003,41.7639 405.0003,40.7639 405.0003,40.7639 L426.0003,40.7639 L426.0003,52.0569 L429.7283,52.0569 L430.7283,52.0569 C432.6543,52.0569 433.2303,53.6329 433.2303,55.5589 L433.2303,61.4849 C433.2303,63.4099 430.6543,64.9859 428.7283,64.9859 L428.0723,64.9859 Z" id="Fill-99" fill="#FFFFFF"></path>
                    <path d="M428.0723,64.9859 L428.0003,73.7639 L438.5003,73.7639 L438.5003,38.2639 C438.5003,24.7639 426.0003,25.7639 426.0003,25.7639 L398.0003,25.7639 L393.0003,25.7639 L393.5003,29.2639 C393.5003,41.7639 405.0003,40.7639 405.0003,40.7639 L426.0003,40.7639 L426.0003,52.0569 L429.7283,52.0569 L430.7283,52.0569 C432.6543,52.0569 433.2303,53.6329 433.2303,55.5589 L433.2303,61.4849 C433.2303,63.4099 430.6543,64.9859 428.7283,64.9859 L428.0723,64.9859 Z" id="Stroke-100" stroke="#588CF4" stroke-width="2"></path>
                    <polyline id="Stroke-101" stroke="#588CF4" stroke-width="2" points="434.999 90.7637 427 104.7637 419 104.7637 412.149 90.7637"></polyline>
                    <polygon id="Fill-102" fill="#DFE7F7" points="413 82.231 413 90.164 424 82.231"></polygon>
                    <path d="M382.5,135.2642 L313.5,135.2642 L303.268,98.0542 C302.881,96.6502 303.937,95.2642 305.394,95.2642 L369.085,95.2642 C370.512,95.2642 371.762,96.2172 372.141,97.5922 L382.5,135.2642 Z" id="Fill-103" fill="#FFFFFF"></path>
                    <path d="M382.5,135.2642 L313.5,135.2642 L303.268,98.0542 C302.881,96.6502 303.937,95.2642 305.394,95.2642 L369.085,95.2642 C370.512,95.2642 371.762,96.2172 372.141,97.5922 L382.5,135.2642 Z" id="Stroke-104" stroke="#588CF4" stroke-width="2" stroke-linecap="round"></path>
                    <path d="M397.5,144.2642 L313.5,144.2642 L313.5,135.2642 L393.551,135.2642 C395.731,135.2642 397.5,137.0322 397.5,139.2132 L397.5,144.2642 Z" id="Fill-105" fill="#FFFFFF"></path>
                    <path d="M397.5,144.2642 L313.5,144.2642 L313.5,135.2642 L393.551,135.2642 C395.731,135.2642 397.5,137.0322 397.5,139.2132 L397.5,144.2642 Z" id="Stroke-106" stroke="#588CF4" stroke-width="2" stroke-linecap="round"></path>
                    <path d="M343.0723,117.0811 C343.0723,119.6781 340.9673,121.7841 338.3693,121.7841 C335.7713,121.7841 333.6663,119.6781 333.6663,117.0811 C333.6663,114.4831 335.7713,112.3781 338.3693,112.3781 C340.9673,112.3781 343.0723,114.4831 343.0723,117.0811" id="Fill-107" fill="#EAF0FF"></path>
                    <path d="M345.5,114.0836 C345.5,116.6806 343.395,118.7866 340.797,118.7866 C338.199,118.7866 336.094,116.6806 336.094,114.0836 C336.094,111.4856 338.199,109.3796 340.797,109.3796 C343.395,109.3796 345.5,111.4856 345.5,114.0836 Z" id="Stroke-108" stroke="#588CF4" stroke-width="2" stroke-linecap="round" stroke-linejoin="round"></path>
                    <path d="M383.3652,243.3121 C439.3862,243.3121 485.1662,199.4951 488.3202,144.2641 L278.4102,144.2641 C281.5642,199.4951 327.3442,243.3121 383.3652,243.3121" id="Fill-109" fill="#FFFFFF"></path>
                    <path d="M383.3652,243.3121 C439.3862,243.3121 485.1662,199.4951 488.3202,144.2641 L278.4102,144.2641 C281.5642,199.4951 327.3442,243.3121 383.3652,243.3121 Z" id="Stroke-110" stroke="#588CF4" stroke-width="2" stroke-linecap="round"></path>
                    <path d="M365.5,349.8267 L365.5,323.4267 C365.5,321.9077 364.269,320.6767 362.75,320.6767 L319.666,320.6767 C318.147,320.6767 316.917,321.9077 316.917,323.4267 L316.917,383.5147 C316.917,385.0327 318.147,386.2647 319.666,386.2647 L362.75,386.2647 C364.269,386.2647 365.5,385.0327 365.5,383.5147 L365.5,349.8267 Z" id="Stroke-111" stroke="#FFFFFF" stroke-width="1.7"></path>
                    <path d="M352.1396,351.0416 C352.1396,357.0786 347.2456,361.9726 341.2076,361.9726 C335.1706,361.9726 330.2776,357.0786 330.2776,351.0416 C330.2776,345.0036 335.1706,340.1096 341.2076,340.1096 C347.2456,340.1096 352.1396,345.0036 352.1396,351.0416 Z" id="Stroke-112" stroke="#FFFFFF" stroke-width="1.7"></path>
                    <line x1="332.7061" y1="369.2603" x2="349.7101" y2="369.2603" id="Stroke-113" stroke="#FFFFFF" stroke-width="1.7"></line>
                    <line x1="336.3496" y1="374.1187" x2="346.0666" y2="374.1187" id="Stroke-114" stroke="#FFFFFF" stroke-width="1.7"></line>
                    <path d="M334.1807,359.6304 C334.1807,354.9444 338.8667,353.3834 338.8667,353.3834" id="Stroke-115" stroke="#FFFFFF" stroke-width="1.7"></path>
                    <path d="M348.2354,359.6304 C348.2354,354.9444 343.5504,353.3834 343.5504,353.3834" id="Stroke-116" stroke="#FFFFFF" stroke-width="1.7"></path>
                    <path d="M345.1123,349.0894 C345.1123,351.8214 343.5803,354.1644 341.2083,354.1644 C338.8373,354.1644 337.3043,351.8214 337.3043,349.0894 C337.3043,346.3564 338.0853,344.7944 341.2083,344.7944 C344.3323,344.7944 345.1123,346.3564 345.1123,349.0894 Z" id="Stroke-117" stroke="#FFFFFF" stroke-width="1.7"></path>
                    <path d="M347.6035,330.3931 L334.8135,330.3931 C333.9885,330.3931 333.3135,329.7181 333.3135,328.8931 L333.3135,328.2491 C333.3135,327.4241 333.9885,326.7491 334.8135,326.7491 L347.6035,326.7491 C348.4275,326.7491 349.1035,327.4241 349.1035,328.2491 L349.1035,328.8931 C349.1035,329.7181 348.4275,330.3931 347.6035,330.3931 Z" id="Stroke-118" stroke="#FFFFFF" stroke-width="1.7"></path>
                    <line x1="114.5" y1="85.2642" x2="114.5" y2="91.2642" id="Stroke-119" stroke="#FFFFFF" stroke-width="1.7"></line>
                    <polyline id="Stroke-120" stroke="#FFFFFF" stroke-width="1.7" points="141.5 50.2642 141.5 85.2642 87.5 85.2642 87.5 50.2642"></polyline>
                    <polygon id="Stroke-121" stroke="#FFFFFF" stroke-width="1.7" points="145.5 47.2642 145.5 43.2642 121.5 43.2642 117.5 39.2642 111.5 39.2642 107.5 43.2642 83.5 43.2642 83.5 47.2642"></polygon>
                    <path d="M117.5,94.2642 C117.5,95.9202 116.157,97.2642 114.5,97.2642 C112.843,97.2642 111.5,95.9202 111.5,94.2642 C111.5,92.6082 112.843,91.2642 114.5,91.2642 C116.157,91.2642 117.5,92.6082 117.5,94.2642 Z" id="Stroke-122" stroke="#FFFFFF" stroke-width="1.7"></path>
                    <line x1="98.5" y1="72.2642" x2="107.5" y2="63.2642" id="Stroke-123" stroke="#FFFFFF" stroke-width="1.7"></line>
                    <line x1="121.5" y1="69.2642" x2="130.5" y2="60.2642" id="Stroke-124" stroke="#FFFFFF" stroke-width="1.7"></line>
                    <line x1="111.5" y1="63.2642" x2="117.5" y2="69.2642" id="Stroke-125" stroke="#FFFFFF" stroke-width="1.7"></line>
                    <path d="M99.5,74.2642 C99.5,75.9212 98.157,77.2642 96.5,77.2642 C94.843,77.2642 93.5,75.9212 93.5,74.2642 C93.5,72.6072 94.843,71.2642 96.5,71.2642 C98.157,71.2642 99.5,72.6072 99.5,74.2642 Z" id="Stroke-126" stroke="#FFFFFF" stroke-width="1.7"></path>
                    <path d="M112.5,61.2642 C112.5,62.9212 111.157,64.2642 109.5,64.2642 C107.843,64.2642 106.5,62.9212 106.5,61.2642 C106.5,59.6072 107.843,58.2642 109.5,58.2642 C111.157,58.2642 112.5,59.6072 112.5,61.2642 Z" id="Stroke-127" stroke="#FFFFFF" stroke-width="1.7"></path>
                    <path d="M135.5,58.2642 C135.5,59.9212 134.157,61.2642 132.5,61.2642 C130.843,61.2642 129.5,59.9212 129.5,58.2642 C129.5,56.6072 130.843,55.2642 132.5,55.2642 C134.157,55.2642 135.5,56.6072 135.5,58.2642 Z" id="Stroke-128" stroke="#FFFFFF" stroke-width="1.7"></path>
                    <path d="M122.5,71.2642 C122.5,72.9212 121.157,74.2642 119.5,74.2642 C117.843,74.2642 116.5,72.9212 116.5,71.2642 C116.5,69.6072 117.843,68.2642 119.5,68.2642 C121.157,68.2642 122.5,69.6072 122.5,71.2642 Z" id="Stroke-129" stroke="#FFFFFF" stroke-width="1.7"></path>
                    <line x1="113.5" y1="43.2642" x2="115.5" y2="43.2642" id="Stroke-130" stroke="#FFFFFF" stroke-width="1.7"></line>
                    <line x1="94.5" y1="55.2642" x2="92.5" y2="55.2642" id="Stroke-131" stroke="#FFFFFF" stroke-width="1.7"></line>
                    <line x1="136.5" y1="77.2642" x2="134.5" y2="77.2642" id="Stroke-132" stroke="#FFFFFF" stroke-width="1.7"></line>
                </g>
            </g>
        </g>
    </g>
</svg>
