<?xml version="1.0" encoding="UTF-8"?>
<svg width="72px" height="72px" viewBox="0 0 72 72" version="1.1" xmlns="http://www.w3.org/2000/svg" xmlns:xlink="http://www.w3.org/1999/xlink">
    <!-- Generator: Sketch 61.2 (89653) - https://sketch.com -->
    <title>Untitled 2</title>
    <desc>Created with Sketch.</desc>
    <g id="Page-1" stroke="none" stroke-width="1" fill="none" fill-rule="evenodd">
        <g id="icon_bios" transform="translate(1.000000, 1.000000)">
            <rect id="Rectangle" stroke="#588CF4" stroke-width="2" x="0" y="0" width="70" height="70" rx="35" fill="#EAF0FF"></rect>
            <path d="M23.23,40.28 C26.35,40.28 28.98,38.76 29.84,36.68 C29.9655003,36.3277064 29.9051637,35.9358988 29.6794882,35.6376846 C29.4538126,35.3394705 29.0931398,35.1749443 28.72,35.2 L23.14,35.2" id="Path" fill="#588CF4"></path>
            <path d="M9.9,58.91 L10.73,54.76 C10.7379383,53.0228263 11.4356504,51.3599583 12.6696438,50.1372172 C13.9036371,48.914476 15.5728265,48.2320253 17.31,48.24 L30,48.24 L30,44.18 L25,44.18 C23.8794299,44.1265796 22.9987274,43.201842 23,42.08 L23,24 C23.1379904,22.8167515 23.4200817,21.6548036 23.84,20.54" id="Path" stroke="#588CF4" stroke-width="2"></path>
            <path d="M42.11,39 L42.11,48.25 L52.69,48.25 C54.4271735,48.2420253 56.0963629,48.924476 57.3303562,50.1472172 C58.5643496,51.3699583 59.2620617,53.0328263 59.27,54.77 L60.1,58.92" id="Path" stroke="#588CF4" stroke-width="2"></path>
            <path d="M38,34.79 L38,39.43 L43.47,39.43 L43.47,20.65 C43.47,13.51 37,14 37,14 L19.76,14 L20,15.89 C20,22.5 26,22 26,22 L37,22 L37,28 L39.47,28 C40.47,28 40.77,28.84 40.77,29.86 L40.77,32.99 C40.77,33.99 39.43,34.85 38.43,34.85 L38,34.79 Z" id="Path" fill="#588CF4" fill-rule="nonzero"></path>
        </g>
    </g>
</svg>
