<?xml version="1.0" encoding="UTF-8"?>
<svg width="89px" height="89px" viewBox="0 0 89 89" version="1.1" xmlns="http://www.w3.org/2000/svg" xmlns:xlink="http://www.w3.org/1999/xlink">
    <!-- Generator: Sketch 61.2 (89653) - https://sketch.com -->
    <title>Group 2</title>
    <desc>Created with Sketch.</desc>
    <g id="Page-1" stroke="none" stroke-width="1" fill="none" fill-rule="evenodd">
        <g id="Symposium_Landing" transform="translate(-715.000000, -927.000000)">
            <rect id="Rectangle-Copy" fill="#F6F9FC" x="0" y="853" width="1520" height="1257"></rect>
            <g id="Group-2" transform="translate(715.000000, 927.000000)">
                <path d="M87.9069767,44.4767442 C87.9069767,68.4633932 68.4633932,87.9069767 44.4767442,87.9069767 C20.4900951,87.9069767 1.04651163,68.4633932 1.04651163,44.4767442 C1.04651163,20.4900951 20.4900951,1.04651163 44.4767442,1.04651163 C68.4633932,1.04651163 87.9069767,20.4900951 87.9069767,44.4767442" id="Fill-1" fill="#EAF0FF"></path>
                <path d="M44.4767442,0.0465116279 C69.015678,0.0465116279 88.9069767,19.9378104 88.9069767,44.4767442 C88.9069767,69.015678 69.015678,88.9069767 44.4767442,88.9069767 C19.9378104,88.9069767 0.0465116279,69.015678 0.0465116279,44.4767442 C0.0465116279,19.9378104 19.9378104,0.0465116279 44.4767442,0.0465116279 Z M58.6511628,50.1860465 L29.255814,50.1860465 L29.2553182,84.0951875 C33.9801023,85.9115008 39.1121238,86.9069767 44.4767442,86.9069767 C49.4477494,86.9069767 54.2190362,86.0522226 58.6516555,84.4816635 L58.6511628,50.1860465 Z M44.4767442,2.04651163 C21.0423799,2.04651163 2.04651163,21.0423799 2.04651163,44.4767442 C2.04651163,61.7800248 12.4029326,76.6634669 27.2556236,83.2669195 L27.2555116,50.1855116 L18.8837209,50.1860465 L18.8837209,39.8139535 L37.7205116,39.8135116 L37.7209302,31.5517276 C37.7209302,26.1478323 41.8333776,21.7061519 47.0994425,21.1843729 C47.2395775,18.1295725 49.7590794,15.6976744 52.8488372,15.6976744 C56.0287551,15.6976744 58.6046512,18.2735705 58.6046512,21.4534884 C58.6046512,24.6334063 56.0287551,27.2093023 52.8488372,27.2093023 C50.2668178,27.2093023 48.0830338,25.510998 47.3531109,23.1700151 C43.0718485,23.5659397 39.7209302,27.1666861 39.7209302,31.5517276 L39.7205116,39.8135116 L69.0232558,39.8139535 L69.0232558,50.1860465 L60.6505116,50.1855116 L60.6516742,83.7152461 C76.0619776,77.3562064 86.9069767,62.1834742 86.9069767,44.4767442 C86.9069767,21.0423799 67.9111085,2.04651163 44.4767442,2.04651163 Z M67.0232558,41.8139535 L20.8837209,41.8139535 L20.8837209,48.1860465 L67.0232558,48.1860465 L67.0232558,41.8139535 Z" id="Combined-Shape" fill="#588CF4" fill-rule="nonzero"></path>
            </g>
            <path d="M767.27907,982.511628 L767.27907,1008.5814 L749.581395,1008.5814 L749.581395,982.511628 L767.27907,982.511628 Z M765.27907,984.511628 L751.581395,984.511628 L751.581395,1006.5814 L765.27907,1006.5814 L765.27907,984.511628 Z" id="Stroke-8" fill="#588CF4" fill-rule="nonzero"></path>
        </g>
    </g>
</svg>
