<?xml version="1.0" encoding="utf-8"?>
<!-- Generator: Adobe Illustrator 26.3.1, SVG Export Plug-In . SVG Version: 6.00 Build 0)  -->
<svg version="1.1" id="Layer_1" xmlns="http://www.w3.org/2000/svg" xmlns:xlink="http://www.w3.org/1999/xlink" x="0px" y="0px"
	 viewBox="0 0 190.1 44" style="enable-background:new 0 0 190.1 44;" xml:space="preserve">
<style type="text/css">
	.st0{fill:#588CF4;}
	.st1{fill:#241F20;}
</style>
<path id="Combined-Shape" class="st0" d="M14.6,23.6c4.4,0,7.9,3.6,7.9,8s-3.6,8-7.9,8l0,0H4.4L0,44V23.6H14.6z M22.5,0.6V21H7.9
	C3.6,21,0,17.4,0,13s3.6-8,7.9-8l0,0h10.2L22.5,0.6z"/>
<path id="Combined-Shape_00000031888946496118263900000010362155772721156786_" class="st1" d="M55.5,15v7.3c0,2.2,0.9,3.4,2.8,3.4
	c1,0,1.7-0.3,2.3-0.9c0.6-0.6,0.9-1.6,0.9-2.8v-7h4v12.5c0,2.5-0.6,4.4-1.9,5.6C62.2,34.4,60.4,35,58,35c-1.3,0-2.5-0.2-3.7-0.5
	c-1.1-0.3-2.1-0.8-2.9-1.4l1.6-2.9c0.6,0.5,1.3,0.9,2.1,1.1c0.8,0.3,1.7,0.4,2.5,0.4c1.3,0,2.3-0.3,2.9-0.9s0.9-1.6,0.9-2.8v-0.5
	c-0.5,0.5-1.1,0.9-1.8,1.2c-0.7,0.3-1.4,0.4-2.2,0.4c-1.8,0-3.2-0.5-4.3-1.6c-1.1-1-1.6-2.6-1.6-4.7V15H55.5z M102.7,15
	c1.3,0,2.4,0.3,3.5,0.9c1,0.6,1.9,1.4,2.5,2.5s0.9,2.3,0.9,3.7c0,1.4-0.3,2.7-0.9,3.7c-0.6,1.1-1.4,1.9-2.5,2.5
	c-1,0.6-2.2,0.9-3.5,0.9c-1.8,0-3.1-0.6-4.1-1.7V34h-4V15h3.8v1.8C99.4,15.6,100.8,15,102.7,15z M154,15v7.2c0,2.2,0.9,3.3,2.8,3.3
	c1,0,1.7-0.3,2.3-0.9s0.9-1.6,0.9-2.8V15h4v14h-3.8v-1.8c-0.5,0.6-1.2,1.1-1.9,1.4c-0.7,0.3-1.5,0.5-2.4,0.5c-1.8,0-3.3-0.5-4.3-1.6
	c-1.1-1-1.6-2.6-1.6-4.6V15H154z M86.2,15c1.7,0,3.1,0.5,4.1,1.5s1.5,2.5,1.5,4.6V29h-3.9v-7.3c0-1.1-0.2-1.9-0.7-2.4
	c-0.4-0.5-1.1-0.8-1.9-0.8c-0.9,0-1.7,0.3-2.2,0.9s-0.8,1.5-0.8,2.7V29h-3.9v-7.3c0-2.2-0.9-3.3-2.6-3.3c-0.9,0-1.6,0.3-2.2,0.9
	c-0.5,0.6-0.8,1.5-0.8,2.7v7h-3.9V15h3.8v1.8c0.5-0.6,1.1-1,1.9-1.3c0.7-0.3,1.5-0.5,2.4-0.5c1,0,1.8,0.2,2.6,0.6
	c0.8,0.4,1.4,0.9,1.9,1.7c0.6-0.7,1.3-1.3,2.1-1.7C84.3,15.2,85.2,15,86.2,15z M184.5,15c1.7,0,3.1,0.5,4.1,1.5s1.5,2.5,1.5,4.6V29
	h-3.9v-7.3c0-1.1-0.2-1.9-0.7-2.4c-0.4-0.5-1.1-0.8-1.9-0.8c-0.9,0-1.7,0.3-2.2,0.9s-0.8,1.5-0.8,2.7V29h-3.9v-7.3
	c0-2.2-0.9-3.3-2.6-3.3c-0.9,0-1.6,0.3-2.2,0.9c-0.5,0.6-0.8,1.5-0.8,2.7v7h-3.9V15h3.8v1.8c0.5-0.6,1.1-1,1.9-1.3
	c0.7-0.3,1.5-0.5,2.4-0.5c1,0,1.8,0.2,2.6,0.6c0.8,0.4,1.4,0.9,1.9,1.7c0.6-0.7,1.3-1.3,2.1-1.7C182.6,15.2,183.5,15,184.5,15z
	 M42,11c1.2,0,2.3,0.1,3.4,0.4c1.1,0.3,2.1,0.6,2.9,1.1L47,15.6c-1.7-0.9-3.3-1.4-5-1.4c-1.2,0-2,0.2-2.6,0.5
	c-0.6,0.4-0.8,0.8-0.8,1.4c0,0.6,0.3,1,1,1.3c0.6,0.3,1.6,0.6,3,0.9s2.5,0.6,3.4,0.9s1.6,0.8,2.3,1.5c0.6,0.7,0.9,1.6,0.9,2.8
	c0,1-0.3,1.9-0.9,2.7c-0.6,0.8-1.4,1.5-2.6,2C44.4,28.8,43,29,41.3,29c-1.4,0-2.8-0.2-4.1-0.6s-2.4-0.9-3.2-1.5l1.4-3
	c0.8,0.5,1.7,1,2.8,1.3s2.1,0.5,3.2,0.5c1.2,0,2.1-0.2,2.6-0.5c0.6-0.3,0.9-0.8,0.9-1.4c0-0.4-0.2-0.8-0.5-1
	c-0.3-0.3-0.8-0.5-1.3-0.7s-1.2-0.3-2.1-0.5c-1.4-0.3-2.5-0.6-3.4-0.9s-1.6-0.8-2.3-1.5c-0.6-0.7-0.9-1.6-0.9-2.8
	c0-1,0.3-1.9,0.9-2.7c0.6-0.8,1.4-1.5,2.6-2C38.9,11.2,40.3,11,42,11z M118.9,15c1.4,0,2.7,0.3,3.9,0.9c1.1,0.6,2,1.4,2.7,2.5
	c0.6,1.1,1,2.3,1,3.6c0,1.3-0.3,2.6-1,3.6c-0.6,1.1-1.5,1.9-2.7,2.5c-1.1,0.6-2.4,0.9-3.9,0.9c-1.4,0-2.7-0.3-3.9-0.9
	s-2-1.4-2.7-2.5c-0.6-1.1-1-2.3-1-3.6c0-1.3,0.3-2.6,1-3.6c0.6-1.1,1.5-1.9,2.7-2.5C116.2,15.3,117.5,15,118.9,15z M146.9,15v14h-4
	V15H146.9z M134.5,15c0.9,0,1.9,0.1,2.8,0.3c0.9,0.2,1.7,0.5,2.3,0.9l-1.3,2.8c-1.2-0.7-2.4-1-3.8-1c-0.8,0-1.4,0.1-1.8,0.4
	c-0.4,0.2-0.6,0.5-0.6,0.9s0.2,0.7,0.7,0.9c0.4,0.2,1.1,0.3,2.1,0.5c1.1,0.2,2,0.4,2.7,0.6c0.7,0.2,1.3,0.6,1.8,1.1
	c0.5,0.6,0.8,1.3,0.8,2.3c0,0.8-0.2,1.6-0.7,2.2c-0.5,0.7-1.2,1.2-2.2,1.5c-0.9,0.4-2.1,0.5-3.4,0.5c-1.1,0-2.2-0.1-3.2-0.4
	c-1.1-0.3-1.9-0.6-2.5-1l1.3-2.8c0.6,0.4,1.3,0.7,2.1,0.9c0.8,0.2,1.7,0.4,2.5,0.4c1.6,0,2.4-0.4,2.4-1.2c0-0.4-0.2-0.7-0.7-0.8
	c-0.4-0.2-1.1-0.3-2-0.4c-1.1-0.2-2-0.4-2.7-0.6c-0.7-0.2-1.3-0.6-1.8-1.2s-0.8-1.3-0.8-2.4c0-0.9,0.2-1.6,0.7-2.3
	c0.5-0.7,1.2-1.2,2.1-1.6C132.1,15.2,133.2,15,134.5,15z M102,18.3c-1,0-1.9,0.3-2.5,1c-0.7,0.7-1,1.6-1,2.8c0,1.2,0.3,2.1,1,2.8
	c0.7,0.7,1.5,1,2.5,1s1.9-0.3,2.5-1c0.7-0.7,1-1.6,1-2.8c0-1.2-0.3-2.1-1-2.8C103.9,18.6,103.1,18.3,102,18.3z M118.9,18.2
	c-1,0-1.9,0.3-2.5,1c-0.7,0.7-1,1.6-1,2.7s0.3,2.1,1,2.7c0.7,0.7,1.5,1,2.5,1s1.8-0.3,2.5-1c0.7-0.7,1-1.6,1-2.7s-0.3-2.1-1-2.7
	S119.9,18.2,118.9,18.2z M144.9,9c0.7,0,1.3,0.2,1.8,0.6c0.5,0.4,0.7,0.9,0.7,1.5c0,0.7-0.2,1.2-0.7,1.6c-0.5,0.4-1.1,0.6-1.8,0.6
	c-0.7,0-1.3-0.2-1.8-0.6c-0.5-0.4-0.7-0.9-0.7-1.6c0-0.6,0.2-1.2,0.7-1.6C143.5,9.2,144.1,9,144.9,9z"/>
</svg>
