<svg width="199px" height="44px" viewBox="0 0 199 44" version="1.1" xmlns="http://www.w3.org/2000/svg" xmlns:xlink="http://www.w3.org/1999/xlink">
    <path d="M14.595103,23.6083 C18.9623152,23.6083 22.5356788,27.1972 22.5356788,31.5834 C22.5356788,35.9696 18.9623152,39.5585 14.595103,39.5585 L14.595103,39.5585 L4.42213333,39.5585 L-0.000139393939,44 L-0.000139393939,23.6083 Z M22.5356788,0.60837 L22.5356788,21.00007 L7.94043636,21.00007 C3.57322424,21.00007 -0.000139393939,17.41117 -0.000139393939,13.02497 C-0.000139393939,8.63877 3.57322424,5.04987 7.94043636,5.04987 L7.94043636,5.04987 L18.1134061,5.04987 L22.5356788,0.60837 Z" id="Combined-Shape" fill="#588CF4"></path>
    <path d="M63.0981459,16 L63.0981459,22.3421082 C63.0981459,24.583973 64.0228738,25.7052612 65.8730351,25.7052612 C66.823156,25.7052612 67.5863563,25.3929227 68.1640468,24.7682456 C68.7403265,24.1435686 69.0295244,23.2150908 69.0295244,21.9821007 L69.0295244,16 L73,16 L73,27.5024527 C73,30.0360232 72.3637646,31.918592 71.0905885,33.1508706 C69.8181177,34.3838607 67.9686618,35 65.5415155,35 C64.2521161,35 63.0346634,34.8370717 61.8891576,34.5119266 C60.7436518,34.1867815 59.780129,33.7157836 59,33.0996443 L60.577892,30.2245647 C61.1548771,30.7033889 61.8595324,31.0797603 62.6911528,31.3536791 C63.5220677,31.6275978 64.3621524,31.7649129 65.2114067,31.7649129 C66.5346634,31.7649129 67.501713,31.4568433 68.1125554,30.8399925 C68.7241032,30.2245647 69.0295244,29.2825688 69.0295244,28.0161393 L69.0295244,27.5536791 C68.5195486,28.0673657 67.9171705,28.4615241 67.2216848,28.7347313 C66.5254938,29.0093615 65.7792221,29.1459652 64.9814591,29.1459652 C63.1827892,29.1459652 61.7572551,28.6287212 60.7055623,27.5920989 C59.653164,26.5568995 59.1276703,25.0037446 59.1276703,22.9326343 L59.1276703,16 L63.0981459,16 Z M112.140162,15 C113.419776,15 114.58448,15.2952631 115.634274,15.8857892 C116.684069,16.4763153 117.50688,17.3073207 118.104128,18.3759596 C118.701376,19.4460213 119,20.691818 119,22.1119266 C119,23.5334582 118.701376,24.7785433 118.104128,25.8478937 C117.50688,26.9179554 116.684069,27.7482494 115.634274,28.338064 C114.58448,28.9293016 113.419776,29.2245647 112.140162,29.2245647 C110.382466,29.2245647 109,28.6681895 107.993474,27.5554391 L107.993474,34 L104,34 L104,15.2056169 L107.814016,15.2056169 L107.814016,16.7971915 C108.803518,15.5997753 110.246276,15 112.140162,15 Z M163.007017,16 L163.007017,23.205339 C163.007017,25.4271214 163.940255,26.5383678 165.807444,26.5383678 C166.766309,26.5383678 167.536533,26.2264515 168.11954,25.6026188 C168.701124,24.978786 168.992983,24.0515631 168.992983,22.8202395 L168.992983,16 L173,16 L173,29.794661 L169.197997,29.794661 L169.197997,28.1533699 C168.666955,28.7523346 168.033406,29.2091961 167.297351,29.5253756 C166.560584,29.841555 165.764021,30 164.907663,30 C163.092439,30 161.653786,29.4784815 160.592414,28.4354446 C159.53033,27.3931181 159,25.8456151 159,23.795067 L159,16 L163.007017,16 Z M94.4336971,15 C96.1374527,15 97.4906414,15.5087292 98.4946653,16.5254771 C99.4979881,17.5429354 100,19.0684125 100,21.1019082 L100,29 L96.0533167,29 L96.0533167,21.7179253 C96.0533167,20.6244417 95.8289538,19.8073488 95.3823314,19.2687779 C94.9350079,18.7309176 94.2983782,18.4616322 93.4717413,18.4616322 C92.544141,18.4616322 91.8100537,18.7650223 91.2708816,19.3718027 C90.7310084,19.978583 90.4610718,20.8802274 90.4610718,22.0767357 L90.4610718,29 L86.5143885,29 L86.5143885,21.7179253 C86.5143885,19.5473 85.6540971,18.4616322 83.9328131,18.4616322 C83.02204,18.4616322 82.2963663,18.7650223 81.7571942,19.3718027 C81.2166199,19.978583 80.9473845,20.8802274 80.9473845,22.0767357 L80.9473845,29 L77,29 L77,15.205339 L80.7706987,15.205339 L80.7706987,16.7947625 C81.2762163,16.2142712 81.8960188,15.7694884 82.6301061,15.4611246 C83.3634923,15.1534714 84.1690952,15 85.0462139,15 C86.0074686,15 86.8768748,15.1925497 87.652329,15.5769387 C88.4284843,15.9613276 89.0524936,16.521214 89.5250579,17.2558871 C90.0817583,16.5382663 90.7856969,15.9826431 91.6375747,15.589728 C92.4894525,15.1968128 93.4212596,15 94.4336971,15 Z M193.433697,15 C195.137453,15 196.490641,15.5087292 197.494665,16.5254771 C198.497988,17.5429354 199,19.0684125 199,21.1019082 L199,29 L195.053317,29 L195.053317,21.7179253 C195.053317,20.6244417 194.828954,19.8073488 194.382331,19.2687779 C193.935008,18.7309176 193.298378,18.4616322 192.471741,18.4616322 C191.544141,18.4616322 190.810054,18.7650223 190.270882,19.3718027 C189.731008,19.978583 189.461072,20.8802274 189.461072,22.0767357 L189.461072,29 L185.514388,29 L185.514388,21.7179253 C185.514388,19.5473 184.654097,18.4616322 182.932813,18.4616322 C182.02204,18.4616322 181.296366,18.7650223 180.757194,19.3718027 C180.21662,19.978583 179.947384,20.8802274 179.947384,22.0767357 L179.947384,29 L176,29 L176,15.205339 L179.770699,15.205339 L179.770699,16.7947625 C180.276216,16.2142712 180.896019,15.7694884 181.630106,15.4611246 C182.363492,15.1534714 183.169095,15 184.046214,15 C185.007469,15 185.876875,15.1925497 186.652329,15.5769387 C187.428484,15.9613276 188.052494,16.521214 188.525058,17.2558871 C189.081758,16.5382663 189.785697,15.9826431 190.637575,15.589728 C191.489453,15.1968128 192.42126,15 193.433697,15 Z M49.9638623,11 C51.1151264,11 52.2406799,11.132277 53.3405228,11.3975198 C54.4396515,11.6627627 55.4016569,12.0437478 56.2265391,12.5411643 L54.9381517,15.59938 C53.271247,14.6879091 51.6050564,14.2318291 49.9381517,14.2318291 C48.7697472,14.2318291 47.9062991,14.4143989 47.3478075,14.7788495 C46.7893158,15.1433 46.51007,15.6241819 46.51007,16.2208061 C46.51007,16.8174302 46.8321668,17.2611092 47.4770747,17.550465 C48.1212684,17.8411988 49.1046993,18.1271099 50.4280817,18.4081984 C51.8021711,18.7237341 52.9277246,19.0385808 53.804028,19.3534275 C54.6803314,19.6682742 55.4316526,20.1656907 56.0594201,20.8449879 C56.6864734,21.5249742 57,22.4447124 57,23.6048915 C57,24.5990355 56.712184,25.5070617 56.1365519,26.3275921 C55.5609199,27.1481226 54.6974718,27.7984843 53.5462077,28.2793662 C52.3949436,28.7595591 50.9951436,29 49.3453792,29 C47.9191544,29 46.5400657,28.8139855 45.2088273,28.4405787 C43.8768747,28.0671719 42.8077418,27.5828453 42,26.9862212 L43.4176546,23.9528074 C44.1911156,24.4998278 45.1095558,24.9393731 46.1751178,25.2707544 C47.2406799,25.6021357 48.3055278,25.7681709 49.3710898,25.7681709 C50.5566348,25.7681709 51.4329382,25.5980021 52,25.2583534 C52.5670618,24.9187048 52.8505928,24.4667585 52.8505928,23.9032036 C52.8505928,23.4891492 52.6827596,23.1446779 52.3478075,22.8718567 C52.0128553,22.5983465 51.5829167,22.3785739 51.0594201,22.2125388 C50.5352093,22.0471926 49.8260249,21.8646228 48.9332952,21.6655184 C47.5584916,21.3506717 46.4329382,21.035825 45.5566348,20.7209783 C44.6803314,20.4061316 43.9290101,19.9004478 43.3019569,19.203927 C42.6741894,18.5080951 42.3606628,17.5800896 42.3606628,16.4199104 C42.3606628,15.4085429 42.6441937,14.4929383 43.2112555,13.6724079 C43.7783174,12.8518774 44.6331953,12.2015157 45.7758892,11.7206338 C46.9185831,11.2404409 48.3148122,11 49.9638623,11 Z M127.512659,15 C128.95091,15 130.236544,15.2997049 131.370968,15.897014 C132.503985,16.4957235 133.392254,17.3248137 134.035775,18.3863852 C134.678592,19.4472565 135,20.6523783 135,21.9996499 C135,23.3476217 134.678592,24.5520432 134.035775,25.6136148 C133.392254,26.6751863 132.503985,27.5049767 131.370968,28.102986 C130.236544,28.7009953 128.95091,29 127.512659,29 C126.074409,29 124.784556,28.7009953 123.642395,28.102986 C122.500234,27.5049767 121.607042,26.6751863 120.964929,25.6136148 C120.321408,24.5520432 120,23.3476217 120,21.9996499 C120,20.6523783 120.321408,19.4472565 120.964929,18.3863852 C121.607042,17.3248137 122.500234,16.4957235 123.642395,15.897014 C124.784556,15.2997049 126.074409,15 127.512659,15 Z M155.510784,15.3279462 L155.510784,29 L151.48993,29 L151.48993,15.3279462 L155.510784,15.3279462 Z M142.455761,15 C143.391863,15 144.323869,15.105042 145.252461,15.3158263 C146.18037,15.5266106 146.948506,15.8172269 147.556188,16.1876751 L146.275277,18.9929972 C145.108393,18.3193277 143.835676,17.9817927 142.455761,17.9817927 C141.634367,17.9817927 141.017809,18.1001401 140.607454,18.3354342 C140.197098,18.5721289 139.991579,18.8753501 139.991579,19.2457983 C139.991579,19.6666667 140.213485,19.9614846 140.657297,20.1302521 C141.100427,20.2983193 141.80643,20.4586835 142.775989,20.609944 C143.860256,20.7955182 144.747198,20.9936975 145.437496,21.2037815 C146.127112,21.4145658 146.7266,21.7983193 147.23596,22.3536415 C147.74532,22.9096639 148,23.6848739 148,24.6785714 C148,25.5210084 147.753514,26.2710084 147.260541,26.9278711 C146.767568,27.5847339 146.049275,28.0945378 145.104296,28.4565826 C144.16,28.8186275 143.038179,29 141.741565,29 C140.640228,29 139.564154,28.8613445 138.513343,28.5833333 C137.461849,28.3053221 136.624068,27.9558824 136,27.5343137 L137.28091,24.7037815 C137.872888,25.0917367 138.587084,25.407563 139.424865,25.6519608 C140.262646,25.8963585 141.08404,26.0182073 141.889047,26.0182073 C143.515448,26.0182073 144.328649,25.6057423 144.328649,24.780112 C144.328649,24.3928571 144.106743,24.1148459 143.66293,23.9460784 C143.219801,23.7780112 142.537696,23.6344538 141.61798,23.5161064 C140.533713,23.3480392 139.637895,23.1540616 138.931892,22.9348739 C138.225889,22.7163866 137.614111,22.3284314 137.096558,21.772409 C136.579004,21.2163866 136.320228,20.42507 136.320228,19.3970588 C136.320228,18.5378151 136.562617,17.7759104 137.047397,17.109944 C137.531494,16.4446779 138.238179,15.9264706 139.166088,15.5553221 C140.093997,15.1855742 141.190555,15 142.455761,15 Z M111.448574,18.2870249 C110.425025,18.2870249 109.58448,18.6328028 108.927649,19.3264932 C108.270109,20.019472 107.941694,20.9486613 107.941694,22.1119266 C107.941694,23.2766149 108.270109,24.2043812 108.927649,24.8980715 C109.58448,25.5910504 110.425025,25.9375398 111.448574,25.9375398 C112.472833,25.9375398 113.313378,25.5910504 113.970209,24.8980715 C114.627039,24.2043812 114.956164,23.2766149 114.956164,22.1119266 C114.956164,20.9486613 114.627039,20.019472 113.970209,19.3264932 C113.313378,18.6328028 112.472833,18.2870249 111.448574,18.2870249 Z M127.512659,18.2351323 C126.497093,18.2351323 125.660165,18.5754514 125.000469,19.2581904 C124.340069,19.9402291 124.010221,20.8547492 124.010221,21.9996499 C124.010221,23.1459511 124.340069,24.0590707 125.000469,24.7418096 C125.660165,25.4238483 126.497093,25.7648677 127.512659,25.7648677 C128.528226,25.7648677 129.360934,25.4238483 130.012894,24.7418096 C130.66415,24.0590707 130.989779,23.1459511 130.989779,21.9996499 C130.989779,20.8547492 130.66415,19.9402291 130.012894,19.2581904 C129.360934,18.5754514 128.528226,18.2351323 127.512659,18.2351323 Z M153.500357,9 C154.238823,9 154.840166,9.20351396 155.304385,9.60983768 C155.76789,10.0168656 156,10.5245942 156,11.1344319 C156,11.7956762 155.76789,12.3421358 155.304385,12.7738108 C154.840166,13.2054857 154.238823,13.4223795 153.500357,13.4223795 C152.761177,13.4223795 152.159834,13.2104151 151.696329,12.7864864 C151.23211,12.3632619 151,11.8379282 151,11.2111897 C151,10.5844513 151.23211,10.0591176 151.696329,9.6351889 C152.159834,9.21196437 152.761177,9 153.500357,9 Z" id="Combined-Shape" fill="#241F20"></path>
</svg>
